<svg id="No_Name_-_Colored" data-name="No Name - Colored" xmlns="http://www.w3.org/2000/svg" viewBox="0 0 562.4 321.8"><title>logo</title><g id="Shadow"><polyline id="Shadow_1" data-name="Shadow 1" points="95 207.9 149 0 153.8 3.9 100.8 215.3 0 228.2" fill="#ffcc67"/><polygon id="Shadow_3" data-name="Shadow 3" points="193.9 247.4 241.5 79 246.3 82.9 195.3 260.1 193.9 247.4" fill="#ffcc67"/><polygon id="Shadow_5" data-name="Shadow 5" points="355.5 215.3 408.5 3.9 403.7 0 349.7 207.9 283.3 207.9 285.8 215.3 355.5 215.3" fill="#ffcc67"/><polygon id="Shadow_2" data-name="Shadow 2" points="192.7 313.3 182.8 308 148.6 73.2 152.6 55.6 192.7 313.3" fill="#ffcc67"/><polygon id="Shadow_4" data-name="Shadow 4" points="277 228.2 267 225.2 241.2 137.9 245.7 121.6 277 228.2" fill="#ffcc67"/><polygon id="Shadow_6" data-name="Shadow 6" points="447.9 228.2 434.1 221.7 403.1 79 408.7 56.7 447.9 228.2" fill="#ffcc67"/></g><g id="M"><polygon id="M_-_Blue_1" data-name="M - Blue 1" points="0 228.2 100.8 215.3 113.6 228.2 0 228.2" fill="#80cfd4"/><polygon id="M_-_Red_1" data-name="M - Red 1" points="100.8 215.3 153.8 3.9 152.6 55.6 113.6 228.2 100.8 215.3" fill="#dd1e34"/><polygon id="M_-_Blue_2" data-name="M - Blue 2" points="192.7 313.3 195.7 259.3 153.8 3.9 152.6 55.6 192.7 313.3" fill="#80cfd4"/><polygon id="M_-_Red_2" data-name="M - Red 2" points="246.1 83.3 195.7 259.3 192.7 313.3 245.7 121.6 246.1 83.3" fill="#dd1e34"/><polygon id="M_-_Blue_3" data-name="M - Blue 3" points="277 228.2 285.8 215.3 246.1 83.3 245.7 121.6 277 228.2" fill="#80cfd4"/><polygon id="M_-_Red_3" data-name="M - Red 3" points="365.3 228.2 354.6 215.3 285.8 215.3 277 228.2 365.3 228.2" fill="#dd1e34"/><polygon id="A_-_Blue_1" data-name="A - Blue 1" points="408.2 3.3 408.7 56.7 365.3 228.2 354.6 215.3 408.2 3.3" fill="#80cfd4"/><polygon id="A_-_Red_1" data-name="A - Red 1" points="447.9 228.2 459.9 213.4 408.2 3.3 408.7 56.7 447.9 228.2" fill="#dd1e34"/><polygon id="End" points="558.4 228.2 459.9 213.4 447.9 228.2 558.4 228.2" fill="#80cfd4"/></g><polygon id="Outline" points="4.7 231.2 104.2 220 158.3 4.4 200.7 265.8 252.7 85 293 220 364 220 418.1 4.4 470.6 218.1 562.3 233.2 458.3 233.2 418.3 58.3 374.1 233.2 284 233.2 252.1 124.5 198 320 157 57.2 117.2 233.2 4.7 231.2" fill="none" stroke="#003751" stroke-miterlimit="10" stroke-width="0.75"/></svg>